<?xml version="1.0" standalone="no"?><svg xmlns="http://www.w3.org/2000/svg" viewBox="0 0 1440 320"><path fill="#f24c61" fill-opacity="0.8" d="M0,64L40,101.3C80,139,160,213,240,213.3C320,213,400,139,480,133.3C560,128,640,192,720,186.7C800,181,880,107,960,69.3C1040,32,1120,32,1200,37.3C1280,43,1360,53,1400,58.7L1440,64L1440,320L1400,320C1360,320,1280,320,1200,320C1120,320,1040,320,960,320C880,320,800,320,720,320C640,320,560,320,480,320C400,320,320,320,240,320C160,320,80,320,40,320L0,320Z"></path></svg>